<svg width="380" height="216" viewBox="0 0 380 216" fill="none" xmlns="http://www.w3.org/2000/svg">
<path d="M211.5 67C183 52 174 70.5 156.5 92C153.5 92 148.4 98.6 152 125C155.6 151.4 193.167 153.667 211.5 151.5L234.5 125C236.333 110.667 234.3 79 211.5 67Z" fill="#00ADD8" stroke="#00ADD8"/>
<path d="M90.72 57.92V158H74.304V114.224H27.216V158H10.8V57.92H27.216V100.832H74.304V57.92H90.72ZM353.634 106.592C359.01 107.552 363.57 110.384 367.314 115.088C371.058 119.792 372.93 125.12 372.93 131.072C372.93 136.16 371.586 140.768 368.898 144.896C366.306 148.928 362.514 152.144 357.522 154.544C352.53 156.848 346.722 158 340.098 158H300.066V57.92H338.226C345.042 57.92 350.898 59.072 355.794 61.376C360.69 63.68 364.386 66.8 366.882 70.736C369.378 74.576 370.626 78.896 370.626 83.696C370.626 89.456 369.09 94.256 366.018 98.096C362.946 101.936 358.818 104.768 353.634 106.592ZM316.482 99.968H336.786C342.162 99.968 346.338 98.768 349.314 96.368C352.386 93.872 353.922 90.32 353.922 85.712C353.922 81.2 352.386 77.696 349.314 75.2C346.338 72.608 342.162 71.312 336.786 71.312H316.482V99.968ZM338.658 144.608C344.226 144.608 348.594 143.264 351.762 140.576C354.93 137.888 356.514 134.144 356.514 129.344C356.514 124.448 354.834 120.56 351.474 117.68C348.114 114.8 343.65 113.36 338.082 113.36H316.482V144.608H338.658Z" fill="#333333"/>
<path d="M195.386 159.008C186.074 159.008 177.482 156.848 169.61 152.528C161.834 148.112 155.642 142.016 151.034 134.24C146.522 126.368 144.266 117.536 144.266 107.744C144.266 97.952 146.522 89.168 151.034 81.392C155.642 73.616 161.834 67.568 169.61 63.248C177.482 58.832 186.074 56.624 195.386 56.624C204.794 56.624 213.386 58.832 221.162 63.248C229.034 67.568 235.226 73.616 239.738 81.392C244.25 89.168 246.506 97.952 246.506 107.744C246.506 117.536 244.25 126.368 239.738 134.24C235.226 142.016 229.034 148.112 221.162 152.528C213.386 156.848 204.794 159.008 195.386 159.008ZM195.386 144.752C202.01 144.752 207.914 143.264 213.098 140.288C218.282 137.216 222.314 132.896 225.194 127.328C228.17 121.664 229.658 115.136 229.658 107.744C229.658 100.352 228.17 93.872 225.194 88.304C222.314 82.736 218.282 78.464 213.098 75.488C207.914 72.512 202.01 71.024 195.386 71.024C188.762 71.024 182.858 72.512 177.674 75.488C172.49 78.464 168.41 82.736 165.434 88.304C162.554 93.872 161.114 100.352 161.114 107.744C161.114 115.136 162.554 121.664 165.434 127.328C168.41 132.896 172.49 137.216 177.674 140.288C182.858 143.264 188.762 144.752 195.386 144.752Z" fill="#00ADD8"/>
</svg>
