<svg width="560" height="560" viewBox="0 0 560 560" fill="none" xmlns="http://www.w3.org/2000/svg">
<rect width="560" height="560" fill="white"/>
<path d="M301.5 239C273 224 264 242.5 246.5 264C243.5 264 238.4 270.6 242 297C245.6 323.4 283.167 325.667 301.5 323.5L324.5 297C326.333 282.667 324.3 251 301.5 239Z" fill="#00ADD8" stroke="#00ADD8"/>
<path d="M180.72 229.92V330H164.304V286.224H117.216V330H100.8V229.92H117.216V272.832H164.304V229.92H180.72ZM443.634 278.592C449.01 279.552 453.57 282.384 457.314 287.088C461.058 291.792 462.93 297.12 462.93 303.072C462.93 308.16 461.586 312.768 458.898 316.896C456.306 320.928 452.514 324.144 447.522 326.544C442.53 328.848 436.722 330 430.098 330H390.066V229.92H428.226C435.042 229.92 440.898 231.072 445.794 233.376C450.69 235.68 454.386 238.8 456.882 242.736C459.378 246.576 460.626 250.896 460.626 255.696C460.626 261.456 459.09 266.256 456.018 270.096C452.946 273.936 448.818 276.768 443.634 278.592ZM406.482 271.968H426.786C432.162 271.968 436.338 270.768 439.314 268.368C442.386 265.872 443.922 262.32 443.922 257.712C443.922 253.2 442.386 249.696 439.314 247.2C436.338 244.608 432.162 243.312 426.786 243.312H406.482V271.968ZM428.658 316.608C434.226 316.608 438.594 315.264 441.762 312.576C444.93 309.888 446.514 306.144 446.514 301.344C446.514 296.448 444.834 292.56 441.474 289.68C438.114 286.8 433.65 285.36 428.082 285.36H406.482V316.608H428.658Z" fill="#333333"/>
<path d="M285.386 331.008C276.074 331.008 267.482 328.848 259.61 324.528C251.834 320.112 245.642 314.016 241.034 306.24C236.522 298.368 234.266 289.536 234.266 279.744C234.266 269.952 236.522 261.168 241.034 253.392C245.642 245.616 251.834 239.568 259.61 235.248C267.482 230.832 276.074 228.624 285.386 228.624C294.794 228.624 303.386 230.832 311.162 235.248C319.034 239.568 325.226 245.616 329.738 253.392C334.25 261.168 336.506 269.952 336.506 279.744C336.506 289.536 334.25 298.368 329.738 306.24C325.226 314.016 319.034 320.112 311.162 324.528C303.386 328.848 294.794 331.008 285.386 331.008ZM285.386 316.752C292.01 316.752 297.914 315.264 303.098 312.288C308.282 309.216 312.314 304.896 315.194 299.328C318.17 293.664 319.658 287.136 319.658 279.744C319.658 272.352 318.17 265.872 315.194 260.304C312.314 254.736 308.282 250.464 303.098 247.488C297.914 244.512 292.01 243.024 285.386 243.024C278.762 243.024 272.858 244.512 267.674 247.488C262.49 250.464 258.41 254.736 255.434 260.304C252.554 265.872 251.114 272.352 251.114 279.744C251.114 287.136 252.554 293.664 255.434 299.328C258.41 304.896 262.49 309.216 267.674 312.288C272.858 315.264 278.762 316.752 285.386 316.752Z" fill="#00ADD8"/>
</svg>
